<!DOCTYPE svg PUBLIC "-//W3C//DTD SVG 1.1//EN" "http://www.w3.org/Graphics/SVG/1.1/DTD/svg11.dtd">
<!-- Uploaded to: SVG Repo, www.svgrepo.com, Transformed by: SVG Repo Mixer Tools -->
<svg version="1.1" id="Icons" xmlns="http://www.w3.org/2000/svg" xmlns:xlink="http://www.w3.org/1999/xlink" viewBox="0 0 32 32" xml:space="preserve" width="800px" height="800px" fill="#ffff00">
<g id="SVGRepo_bgCarrier" stroke-width="0"/>
<g id="SVGRepo_tracerCarrier" stroke-linecap="round" stroke-linejoin="round"/>
<g id="SVGRepo_iconCarrier"> <style type="text/css"> .st0{fill:none;stroke:#ffff00;stroke-width:2;stroke-linecap:round;stroke-linejoin:round;stroke-miterlimit:10;} </style> <path class="st0" d="M28,19H4c-1.7,0-3-1.3-3-3v0c0-1.7,1.3-3,3-3h24c1.7,0,3,1.3,3,3v0C31,17.7,29.7,19,28,19z"/> <path class="st0" d="M14,19H4c-1.7,0-3-1.3-3-3v0c0-1.7,1.3-3,3-3h10c1.7,0,3,1.3,3,3v0C17,17.7,15.7,19,14,19z"/> </g>
</svg>