<svg xmlns="http://www.w3.org/2000/svg" version="1.1" xmlns:xlink="http://www.w3.org/1999/xlink" xmlns:svgjs="http://svgjs.dev/svgjs" width="2000" height="1500" viewBox="0 0 2000 1500"><rect width="2000" height="1500" fill="#fe012f"></rect><g transform="matrix(0.75,0,0,0.75,249.7831588239917,230.45443548387095)"><svg viewBox="0 0 359 248" data-background-color="#fe012f" preserveAspectRatio="xMidYMid meet" height="1381" width="2000" xmlns="http://www.w3.org/2000/svg" xmlns:xlink="http://www.w3.org/1999/xlink"><g id="tight-bounds" transform="matrix(1,0,0,1,0.05189732145800008,0.4000000000000057)"><svg viewBox="0 0 358.896205357084 247.2" height="247.2" width="358.896205357084"><g><svg viewBox="0 0 395.52 272.42568336079546" height="247.2" width="358.896205357084"><g transform="matrix(1,0,0,1,0,199.2700805334537)"><svg viewBox="0 0 395.52 73.15560282734177" height="73.15560282734177" width="395.52"><g id="textblocktransform"><svg viewBox="0 0 395.52 73.15560282734177" height="73.15560282734177" width="395.52" id="textblock"><g><svg viewBox="0 0 395.52 39.45663652802893" height="39.45663652802893" width="395.52"><g transform="matrix(1,0,0,1,0,0)"><svg width="395.52" viewBox="0 -36.5 497.65 49.65" height="39.45663652802893" data-palette-color="#e9abfe"><path d="M0.15 0.15L0.15 0.15 0-1.3Q2.35-1.75 3.35-2.27 4.35-2.8 4.65-3.75L4.65-3.75 14.6-34.2 18.8-34.7 30.45-3.45Q30.8-2.6 31.63-2.15 32.45-1.7 34.7-1.3L34.7-1.3 34.55 0.15Q32.9 0.05 31.3 0.03 29.7 0 27.9 0L27.9 0Q23.95 0 20.85 0.15L20.85 0.15 20.7-1.3Q23.3-1.8 24.2-2.2 25.1-2.6 25.1-3.2L25.1-3.2 22.35-12.1 11.05-12.1 8.35-3.2Q8.35-2.6 9.3-2.2 10.25-1.8 12.65-1.3L12.65-1.3 12.5 0.15Q10.85 0.05 9.25 0.03 7.65 0 5.85 0L5.85 0Q4.3 0 3.2 0.03 2.1 0.05 0.15 0.15ZM16.3-29.5L11.75-14.4 21.55-14.4 16.5-29.5 16.3-29.5ZM44.35-23L44.35-23Q47.45-23 49.17-22.38 50.9-21.75 50.9-21.75L50.9-21.75Q50.9-20.65 50.95-19.25 51-17.85 51.2-16.8L51.2-16.8 49.9-16.35Q49.25-19 48.05-19.95 46.85-20.9 44.95-20.9L44.95-20.9Q43.25-20.9 42.22-19.95 41.2-19 41.2-17.7L41.2-17.7Q41.2-16.8 41.75-15.83 42.3-14.85 43.8-14L43.8-14 48.9-11.2Q50.45-10.35 51.32-9.05 52.2-7.75 52.2-5.85L52.2-5.85Q52.2-4.35 51.4-2.9 50.6-1.45 48.82-0.5 47.05 0.45 44.2 0.45L44.2 0.45Q42.7 0.45 40.77 0.15 38.85-0.15 36.7-0.8L36.7-0.8Q36.85-1.55 36.97-2.63 37.1-3.7 37.2-4.78 37.3-5.85 37.3-6.55L37.3-6.55 38.6-7Q39.05-5.25 39.5-3.98 39.95-2.7 40.92-2.05 41.9-1.4 43.9-1.4L43.9-1.4Q46.05-1.4 47.15-2.45 48.25-3.5 48.25-4.8L48.25-4.8Q48.25-5.75 47.67-6.65 47.1-7.55 45.9-8.2L45.9-8.2 40.5-11.2Q38.8-12.1 38-13.55 37.2-15 37.2-16.55L37.2-16.55Q37.2-18.15 38.02-19.63 38.85-21.1 40.45-22.05 42.05-23 44.35-23ZM62-1.15L62-1.15Q62.05 3.55 62.1 6.1 62.15 8.65 62.22 9.65 62.3 10.65 62.3 10.75L62.3 10.75Q62.35 11 63 11.2 63.65 11.4 64.47 11.53 65.3 11.65 65.8 11.7L65.8 11.7 65.65 13.15Q64.45 13.05 62.85 13.03 61.25 13 59.95 13L59.95 13Q58.7 13 56.97 13.03 55.25 13.05 54.05 13.15L54.05 13.15 54.2 11.7Q54.75 11.65 55.52 11.53 56.3 11.4 56.95 11.2 57.6 11 57.65 10.75L57.65 10.75Q57.65 10.75 57.75 10.1 57.85 9.45 57.95 7.75 58.05 6.05 58.15 2.98 58.25-0.1 58.25-4.9L58.25-4.9Q58.25-9.75 58.2-12.7 58.15-15.65 58.05-17.2 57.95-18.75 57.9-19.28 57.85-19.8 57.85-19.8L57.85-19.8 54.65-20.75 54.55-22.05Q55.9-22.05 57.87-22.33 59.85-22.6 61.1-22.95L61.1-22.95 62.05-22.5 62.05-20.05Q63.95-21.5 66.07-22.25 68.2-23 70.2-23L70.2-23Q72.6-23 74.6-21.88 76.6-20.75 77.82-18.38 79.05-16 79.05-12.15L79.05-12.15Q79.05-7.85 77.6-5.05 76.15-2.25 73.7-0.9 71.25 0.45 68.2 0.45L68.2 0.45Q66.65 0.45 65.07 0.05 63.5-0.35 62-1.15ZM62-18.3L62-18.3 62-3.05Q63.3-2.6 64.45-2.4 65.6-2.2 66.6-2.2L66.6-2.2Q69.75-2.2 71.52-3.63 73.3-5.05 74.05-7.28 74.8-9.5 74.8-11.85L74.8-11.85Q74.8-15.4 73.35-17.63 71.9-19.85 68.2-19.85L68.2-19.85Q66.45-19.85 64.65-19.35 62.85-18.85 62-18.3ZM101.24-4.15L101.24-4.15 101.84-2.65Q100.29-1.4 98.22-0.48 96.14 0.45 93.64 0.45L93.64 0.45Q89.94 0.45 87.57-1.03 85.19-2.5 84.07-4.95 82.94-7.4 82.94-10.35L82.94-10.35Q82.94-12.75 83.62-15 84.29-17.25 85.69-19.05 87.09-20.85 89.39-21.93 91.69-23 94.89-23L94.89-23Q96.69-23 98.44-22.15 100.19-21.3 101.34-19.43 102.49-17.55 102.49-14.45L102.49-14.45 100.79-12.4Q100.59-12.45 100.12-12.45 99.64-12.45 98.94-12.45L98.94-12.45Q97.69-12.45 95.99-12.43 94.29-12.4 92.54-12.35 90.79-12.3 89.34-12.23 87.89-12.15 87.19-12.1L87.19-12.1 87.19-11.65Q87.19-6.95 89.17-4.75 91.14-2.55 94.29-2.55L94.29-2.55Q96.14-2.55 97.79-2.95 99.44-3.35 101.24-4.15ZM97.99-16L97.99-16Q97.99-17.7 97.32-18.68 96.64-19.65 95.67-20.1 94.69-20.55 93.79-20.55L93.79-20.55Q91.34-20.55 89.69-18.63 88.04-16.7 87.49-14.15L87.49-14.15 97.84-14.55Q97.99-15.3 97.99-16ZM124.49-4.5L124.49-4.5 125.09-2.85Q123.39-1.5 121.22-0.53 119.04 0.45 116.24 0.45L116.24 0.45Q112.74 0.45 110.42-1.03 108.09-2.5 106.97-5.05 105.84-7.6 105.84-10.75L105.84-10.75Q105.84-13 106.57-15.18 107.29-17.35 108.72-19.13 110.14-20.9 112.27-21.95 114.39-23 117.24-23L117.24-23Q119.39-23 121.09-22.28 122.79-21.55 123.79-20.73 124.79-19.9 124.79-19.6L124.79-19.6Q124.79-18.95 124.49-17.88 124.19-16.8 123.59-15.95L123.59-15.95 122.39-15.95Q122.09-16.8 121.39-17.8 120.69-18.8 119.54-19.55 118.39-20.3 116.69-20.3L116.69-20.3Q114.49-20.3 113.04-18.93 111.59-17.55 110.92-15.43 110.24-13.3 110.24-11.1L110.24-11.1Q110.24-6.55 112.29-4.53 114.34-2.5 117.54-2.5L117.54-2.5Q119.14-2.5 121.04-3.03 122.94-3.55 124.49-4.5ZM141.74-3.55L141.74-3.55 142.34-1.9Q140.64-0.8 139.09-0.18 137.54 0.45 135.94 0.45L135.94 0.45Q133.79 0.45 132.26-0.6 130.74-1.65 130.74-4.55L130.74-4.55Q130.74-4.55 130.76-5.78 130.79-7 130.79-8.78 130.79-10.55 130.79-12.15L130.79-12.15Q130.79-14.65 130.76-16.73 130.74-18.8 130.69-20.3L130.69-20.3Q129.19-20.25 128.34-20.25 127.49-20.25 127.49-20.25L127.49-20.25 127.34-20.8 128.49-22.75Q128.49-22.75 129.01-22.68 129.54-22.6 130.59-22.55L130.59-22.55Q130.59-23.55 130.54-24.63 130.49-25.7 130.44-26.43 130.39-27.15 130.39-27.15L130.39-27.15 133.69-30.1 134.64-29.65Q134.64-29.65 134.61-28.58 134.59-27.5 134.56-25.9 134.54-24.3 134.54-22.6L134.54-22.6Q137.94-22.6 139.91-22.63 141.89-22.65 141.89-22.65L141.89-22.65 142.14-22.05 140.34-20.05Q140.34-20.05 138.99-20.15 137.64-20.25 134.54-20.3L134.54-20.3 134.54-13.6Q134.54-10.6 134.56-8.65 134.59-6.7 134.69-4.65L134.69-4.65Q134.79-3.4 135.54-2.9 136.29-2.4 137.34-2.4L137.34-2.4Q138.49-2.4 139.71-2.8 140.94-3.2 141.74-3.55ZM166.38-3.45L166.38-3.45Q166.48-2.5 167.46-2.13 168.43-1.75 170.73-1.3L170.73-1.3 170.58 0.15Q168.98 0.05 167.33 0.03 165.68 0 163.73 0L163.73 0Q159.78 0 156.63 0.15L156.63 0.15 156.48-1.3Q158.73-1.75 159.78-2.13 160.83-2.5 160.93-3.45L160.93-3.45Q160.93-3.45 161.03-4.63 161.13-5.8 161.23-8.78 161.33-11.75 161.33-17.1L161.33-17.1Q161.33-22.5 161.23-25.48 161.13-28.45 161.03-29.63 160.93-30.8 160.93-30.8L160.93-30.8Q160.83-31.75 159.96-32.13 159.08-32.5 156.83-32.95L156.83-32.95 156.98-34.4Q158.58-34.35 160.21-34.3 161.83-34.25 163.68-34.25L163.68-34.25 172.33-34.25Q175.73-34.25 177.93-33.13 180.13-32 181.18-30.18 182.23-28.35 182.23-26.25L182.23-26.25Q182.23-23.7 180.78-21.2 179.33-18.7 175.48-16.8L175.48-16.8 184.28-2.15Q184.28-2.15 185.23-1.83 186.18-1.5 188.43-1.3L188.43-1.3 188.28 0.15Q187.08 0.15 185.63 0.2 184.18 0.25 182.86 0.3 181.53 0.35 180.68 0.4 179.83 0.45 179.83 0.45L179.83 0.45 170.98-16.1Q170.33-16.05 169.33-16.03 168.33-16 165.83-16L165.83-16Q165.83-11.95 165.91-9.47 165.98-7 166.11-5.7 166.23-4.4 166.31-3.93 166.38-3.45 166.38-3.45ZM173.68-18.45L173.68-18.45Q175.53-19.6 176.61-21.63 177.68-23.65 177.68-26.25L177.68-26.25Q177.68-29.1 175.61-30.63 173.53-32.15 169.38-32.15L169.38-32.15Q167.58-32.15 167.06-31.95 166.53-31.75 166.33-31.05L166.33-31.05Q166.33-31.05 166.21-29.88 166.08-28.7 165.96-25.85 165.83-23 165.83-17.95L165.83-17.95Q171.33-17.95 173.68-18.45ZM208.78-2.6L208.78-2.6 209.28-1.3Q207.38 0.45 205.13 0.45L205.13 0.45Q203.88 0.45 202.88-0.33 201.88-1.1 201.63-2.8L201.63-2.8Q199.78-1.4 197.96-0.48 196.13 0.45 194.03 0.45L194.03 0.45Q192.03 0.45 190.46-0.8 188.88-2.05 188.88-4.75L188.88-4.75Q188.88-6.55 190.03-8.28 191.18-10 193.96-11.23 196.73-12.45 201.48-12.75L201.48-12.75 201.48-17.4Q201.48-18.85 200.41-19.58 199.33-20.3 197.83-20.3L197.83-20.3Q195.63-20.3 194.58-19.25 193.53-18.2 193.53-16.65L193.53-16.65Q193.53-16.05 193.68-15.3L193.68-15.3 192.58-14.8Q191.53-15.35 190.68-16.32 189.83-17.3 189.83-17.7L189.83-17.7Q189.83-18.05 190.46-18.9 191.08-19.75 192.33-20.7 193.58-21.65 195.38-22.33 197.18-23 199.53-23L199.53-23Q201.08-23 202.36-22.55 203.63-22.1 204.38-20.95 205.13-19.8 205.13-17.65L205.13-17.65Q205.13-17.15 205.16-15.85 205.18-14.55 205.23-12.85 205.28-11.15 205.31-9.43 205.33-7.7 205.38-6.4 205.43-5.1 205.43-4.6L205.43-4.6Q205.48-3.25 206.01-2.73 206.53-2.2 207.23-2.2L207.23-2.2Q207.53-2.2 207.93-2.3 208.33-2.4 208.78-2.6ZM201.48-4.7L201.48-4.7 201.48-10.5Q197.08-10.4 195.08-8.85 193.08-7.3 193.08-5.55L193.08-5.55Q193.08-4.05 193.98-3.3 194.88-2.55 196.33-2.55L196.33-2.55Q197.43-2.55 198.76-3.08 200.08-3.6 201.48-4.7ZM225.33-3.55L225.33-3.55 225.93-1.9Q224.23-0.8 222.68-0.18 221.13 0.45 219.53 0.45L219.53 0.45Q217.38 0.45 215.85-0.6 214.33-1.65 214.33-4.55L214.33-4.55Q214.33-4.55 214.35-5.78 214.38-7 214.38-8.78 214.38-10.55 214.38-12.15L214.38-12.15Q214.38-14.65 214.35-16.73 214.33-18.8 214.28-20.3L214.28-20.3Q212.78-20.25 211.93-20.25 211.08-20.25 211.08-20.25L211.08-20.25 210.93-20.8 212.08-22.75Q212.08-22.75 212.6-22.68 213.13-22.6 214.18-22.55L214.18-22.55Q214.18-23.55 214.13-24.63 214.08-25.7 214.03-26.43 213.98-27.15 213.98-27.15L213.98-27.15 217.28-30.1 218.23-29.65Q218.23-29.65 218.2-28.58 218.18-27.5 218.15-25.9 218.13-24.3 218.13-22.6L218.13-22.6Q221.53-22.6 223.5-22.63 225.48-22.65 225.48-22.65L225.48-22.65 225.73-22.05 223.93-20.05Q223.93-20.05 222.58-20.15 221.23-20.25 218.13-20.3L218.13-20.3 218.13-13.6Q218.13-10.6 218.15-8.65 218.18-6.7 218.28-4.65L218.28-4.65Q218.38-3.4 219.13-2.9 219.88-2.4 220.93-2.4L220.93-2.4Q222.08-2.4 223.3-2.8 224.53-3.2 225.33-3.55ZM234.18-22.95L234.18-22.95 235.13-22.5Q235.13-21.85 235.1-20.5 235.08-19.15 235.08-17.53 235.08-15.9 235.05-14.28 235.03-12.65 235.03-11.45L235.03-11.45Q235.03-7.8 235.15-5.85 235.28-3.9 235.4-3.15 235.53-2.4 235.53-2.4L235.53-2.4Q235.58-2.15 236.25-1.9 236.93-1.65 237.75-1.5 238.58-1.35 239.08-1.3L239.08-1.3 238.93 0.15Q237.73 0.05 236.1 0.03 234.48 0 233.18 0L233.18 0Q231.93 0 230.18 0.03 228.43 0.05 227.23 0.15L227.23 0.15 227.38-1.3Q227.93-1.35 228.73-1.5 229.53-1.65 230.18-1.9 230.83-2.15 230.88-2.4L230.88-2.4Q230.88-2.4 230.98-3.15 231.08-3.9 231.18-5.85 231.28-7.8 231.28-11.45L231.28-11.45Q231.28-15.1 231.18-16.88 231.08-18.65 230.98-19.23 230.88-19.8 230.88-19.8L230.88-19.8 227.68-20.75 227.58-22.05Q228.48-22.05 229.7-22.18 230.93-22.3 232.13-22.53 233.33-22.75 234.18-22.95ZM233.03-28.15L233.03-28.15Q231.93-28.15 231.18-28.93 230.43-29.7 230.43-30.85L230.43-30.85Q230.43-31.95 231.18-32.7 231.93-33.45 233.03-33.45L233.03-33.45Q234.13-33.45 234.88-32.7 235.63-31.95 235.63-30.85L235.63-30.85Q235.63-29.7 234.88-28.93 234.13-28.15 233.03-28.15ZM264.37-12.15L264.37-12.15Q264.37-9.75 263.7-7.5 263.02-5.25 261.62-3.45 260.22-1.65 257.95-0.6 255.67 0.45 252.42 0.45L252.42 0.45Q246.82 0.45 244.32-2.53 241.82-5.5 241.82-10.3L241.82-10.3Q241.82-12.7 242.5-14.95 243.17-17.2 244.57-19.03 245.97-20.85 248.27-21.93 250.57-23 253.77-23L253.77-23Q257.52-23 259.85-21.63 262.17-20.25 263.27-17.8 264.37-15.35 264.37-12.15ZM260.07-10.3L260.07-10.3Q260.07-12.85 259.5-15.2 258.92-17.55 257.45-19.05 255.97-20.55 253.22-20.55L253.22-20.55Q251.02-20.55 249.62-19.53 248.22-18.5 247.47-17 246.72-15.5 246.42-14 246.12-12.5 246.12-11.5L246.12-11.5Q246.12-9.05 246.77-6.88 247.42-4.7 248.92-3.33 250.42-1.95 252.97-1.95L252.97-1.95Q254.97-1.95 256.35-2.83 257.72-3.7 258.55-5.05 259.37-6.4 259.72-7.83 260.07-9.25 260.07-10.3ZM299.02 0.6L299.02 0.6Q293.42 0.6 289.44-1.48 285.47-3.55 283.34-7.43 281.22-11.3 281.22-16.7L281.22-16.7Q281.22-22 283.47-26.05 285.72-30.1 289.74-32.4 293.77-34.7 298.97-34.7L298.97-34.7Q302.07-34.7 304.09-34.33 306.12-33.95 307.67-33.95L307.67-33.95Q309.02-33.95 310.27-34.25L310.27-34.25Q310.27-32.45 310.44-30.23 310.62-28 310.87-26.45L310.87-26.45 309.52-25.85Q308.52-29.05 305.79-30.73 303.07-32.4 298.92-32.4L298.92-32.4Q295.17-32.4 292.37-30.55 289.57-28.7 288.02-25.38 286.47-22.05 286.47-17.55L286.47-17.55Q286.47-12.85 288.07-9.33 289.67-5.8 292.52-3.83 295.37-1.85 299.17-1.85L299.17-1.85Q303.67-1.85 306.72-3.73 309.77-5.6 310.87-9L310.87-9 312.22-8.4Q311.77-6.8 311.47-5 311.17-3.2 311.07-1.7L311.07-1.7Q304.77 0.6 299.02 0.6ZM335.67-2.6L335.67-2.6 336.17-1.3Q334.27 0.45 332.02 0.45L332.02 0.45Q330.77 0.45 329.77-0.33 328.77-1.1 328.52-2.8L328.52-2.8Q326.67-1.4 324.84-0.48 323.02 0.45 320.92 0.45L320.92 0.45Q318.92 0.45 317.34-0.8 315.77-2.05 315.77-4.75L315.77-4.75Q315.77-6.55 316.92-8.28 318.07-10 320.84-11.23 323.62-12.45 328.37-12.75L328.37-12.75 328.37-17.4Q328.37-18.85 327.29-19.58 326.22-20.3 324.72-20.3L324.72-20.3Q322.52-20.3 321.47-19.25 320.42-18.2 320.42-16.65L320.42-16.65Q320.42-16.05 320.57-15.3L320.57-15.3 319.47-14.8Q318.42-15.35 317.57-16.32 316.72-17.3 316.72-17.7L316.72-17.7Q316.72-18.05 317.34-18.9 317.97-19.75 319.22-20.7 320.47-21.65 322.27-22.33 324.07-23 326.42-23L326.42-23Q327.97-23 329.24-22.55 330.52-22.1 331.27-20.95 332.02-19.8 332.02-17.65L332.02-17.65Q332.02-17.15 332.04-15.85 332.07-14.55 332.12-12.85 332.17-11.15 332.19-9.43 332.22-7.7 332.27-6.4 332.32-5.1 332.32-4.6L332.32-4.6Q332.37-3.25 332.89-2.73 333.42-2.2 334.12-2.2L334.12-2.2Q334.42-2.2 334.82-2.3 335.22-2.4 335.67-2.6ZM328.37-4.7L328.37-4.7 328.37-10.5Q323.97-10.4 321.97-8.85 319.97-7.3 319.97-5.55L319.97-5.55Q319.97-4.05 320.87-3.3 321.77-2.55 323.22-2.55L323.22-2.55Q324.32-2.55 325.64-3.08 326.97-3.6 328.37-4.7ZM345.31-17.6L345.31-17.6Q345.31-13.1 345.39-10.25 345.46-7.4 345.56-5.75 345.66-4.1 345.74-3.38 345.81-2.65 345.86-2.4L345.86-2.4Q345.91-2.15 346.56-1.9 347.21-1.65 348.04-1.5 348.86-1.35 349.36-1.3L349.36-1.3 349.21 0.15Q348.01 0.05 346.41 0.03 344.81 0 343.51 0L343.51 0Q342.26 0 340.54 0.03 338.81 0.05 337.61 0.15L337.61 0.15 337.76-1.3Q338.31-1.35 339.09-1.5 339.86-1.65 340.51-1.9 341.16-2.15 341.21-2.4L341.21-2.4Q341.21-2.4 341.26-3.13 341.31-3.85 341.39-5.63 341.46-7.4 341.51-10.53 341.56-13.65 341.56-18.5L341.56-18.5Q341.56-23.3 341.51-26.25 341.46-29.2 341.36-30.75 341.26-32.3 341.21-32.83 341.16-33.35 341.16-33.35L341.16-33.35 337.96-34.3 337.86-35.6Q338.76-35.6 339.99-35.73 341.21-35.85 342.41-36.08 343.61-36.3 344.46-36.5L344.46-36.5 345.41-36.05Q345.41-36.05 345.36-31.4 345.31-26.75 345.31-17.6ZM370.71-4.5L370.71-4.5 371.31-2.85Q369.61-1.5 367.44-0.53 365.26 0.45 362.46 0.45L362.46 0.45Q358.96 0.45 356.64-1.03 354.31-2.5 353.19-5.05 352.06-7.6 352.06-10.75L352.06-10.75Q352.06-13 352.79-15.18 353.51-17.35 354.94-19.13 356.36-20.9 358.49-21.95 360.61-23 363.46-23L363.46-23Q365.61-23 367.31-22.28 369.01-21.55 370.01-20.73 371.01-19.9 371.01-19.6L371.01-19.6Q371.01-18.95 370.71-17.88 370.41-16.8 369.81-15.95L369.81-15.95 368.61-15.95Q368.31-16.8 367.61-17.8 366.91-18.8 365.76-19.55 364.61-20.3 362.91-20.3L362.91-20.3Q360.71-20.3 359.26-18.93 357.81-17.55 357.14-15.43 356.46-13.3 356.46-11.1L356.46-11.1Q356.46-6.55 358.51-4.53 360.56-2.5 363.76-2.5L363.76-2.5Q365.36-2.5 367.26-3.03 369.16-3.55 370.71-4.5ZM395.31-4.25L395.31-4.25Q395.36-3.35 395.93-2.9 396.51-2.45 397.38-2.33 398.26-2.2 399.11-2.15L399.11-2.15 398.96-0.7Q397.61-0.6 396.21-0.33 394.81-0.05 393.51 0.2L393.51 0.2Q393.51 0.2 392.68-0.43 391.86-1.05 391.46-2.8L391.46-2.8Q389.46-1.45 386.86-0.5 384.26 0.45 381.76 0.45L381.76 0.45Q379.56 0.45 378.11-0.68 376.66-1.8 376.66-4.75L376.66-4.75 376.66-11.45Q376.66-15.1 376.58-16.88 376.51-18.65 376.41-19.23 376.31-19.8 376.31-19.8L376.31-19.8 373.36-20.75 373.26-22.05Q374.61-22.05 376.48-22.33 378.36-22.6 379.61-22.95L379.61-22.95 380.56-22.5Q380.56-22.5 380.53-21 380.51-19.5 380.48-17.03 380.46-14.55 380.43-11.68 380.41-8.8 380.41-6L380.41-6Q380.41-4.15 381.43-3.4 382.46-2.65 384.46-2.65L384.46-2.65Q386.31-2.65 388.23-3.35 390.16-4.05 391.21-4.75L391.21-4.75Q391.31-5.75 391.36-7.15 391.41-8.55 391.41-11.45L391.41-11.45Q391.41-15.1 391.31-16.88 391.21-18.65 391.11-19.23 391.01-19.8 391.01-19.8L391.01-19.8 387.86-20.75 387.76-22.05Q388.66-22.05 389.88-22.18 391.11-22.3 392.31-22.53 393.51-22.75 394.36-22.95L394.36-22.95 395.31-22.5Q395.31-22.5 395.23-19.55 395.16-16.6 395.16-10.1L395.16-10.1Q395.16-6.95 395.23-5.6 395.31-4.25 395.31-4.25ZM408.56-17.6L408.56-17.6Q408.56-13.1 408.63-10.25 408.71-7.4 408.81-5.75 408.91-4.1 408.98-3.38 409.06-2.65 409.11-2.4L409.11-2.4Q409.16-2.15 409.81-1.9 410.46-1.65 411.28-1.5 412.11-1.35 412.61-1.3L412.61-1.3 412.46 0.15Q411.26 0.05 409.66 0.03 408.06 0 406.76 0L406.76 0Q405.51 0 403.78 0.03 402.06 0.05 400.86 0.15L400.86 0.15 401.01-1.3Q401.56-1.35 402.33-1.5 403.11-1.65 403.76-1.9 404.41-2.15 404.46-2.4L404.46-2.4Q404.46-2.4 404.51-3.13 404.56-3.85 404.63-5.63 404.71-7.4 404.76-10.53 404.81-13.65 404.81-18.5L404.81-18.5Q404.81-23.3 404.76-26.25 404.71-29.2 404.61-30.75 404.51-32.3 404.46-32.83 404.41-33.35 404.41-33.35L404.41-33.35 401.21-34.3 401.11-35.6Q402.01-35.6 403.23-35.73 404.46-35.85 405.66-36.08 406.86-36.3 407.71-36.5L407.71-36.5 408.66-36.05Q408.66-36.05 408.61-31.4 408.56-26.75 408.56-17.6ZM435.35-2.6L435.35-2.6 435.85-1.3Q433.95 0.45 431.7 0.45L431.7 0.45Q430.45 0.45 429.45-0.33 428.45-1.1 428.2-2.8L428.2-2.8Q426.35-1.4 424.53-0.48 422.7 0.45 420.6 0.45L420.6 0.45Q418.6 0.45 417.03-0.8 415.45-2.05 415.45-4.75L415.45-4.75Q415.45-6.55 416.6-8.28 417.75-10 420.53-11.23 423.3-12.45 428.05-12.75L428.05-12.75 428.05-17.4Q428.05-18.85 426.98-19.58 425.9-20.3 424.4-20.3L424.4-20.3Q422.2-20.3 421.15-19.25 420.1-18.2 420.1-16.65L420.1-16.65Q420.1-16.05 420.25-15.3L420.25-15.3 419.15-14.8Q418.1-15.35 417.25-16.32 416.4-17.3 416.4-17.7L416.4-17.7Q416.4-18.05 417.03-18.9 417.65-19.75 418.9-20.7 420.15-21.65 421.95-22.33 423.75-23 426.1-23L426.1-23Q427.65-23 428.93-22.55 430.2-22.1 430.95-20.95 431.7-19.8 431.7-17.65L431.7-17.65Q431.7-17.15 431.73-15.85 431.75-14.55 431.8-12.85 431.85-11.15 431.88-9.43 431.9-7.7 431.95-6.4 432-5.1 432-4.6L432-4.6Q432.05-3.25 432.58-2.73 433.1-2.2 433.8-2.2L433.8-2.2Q434.1-2.2 434.5-2.3 434.9-2.4 435.35-2.6ZM428.05-4.7L428.05-4.7 428.05-10.5Q423.65-10.4 421.65-8.85 419.65-7.3 419.65-5.55L419.65-5.55Q419.65-4.05 420.55-3.3 421.45-2.55 422.9-2.55L422.9-2.55Q424-2.55 425.33-3.08 426.65-3.6 428.05-4.7ZM451.9-3.55L451.9-3.55 452.5-1.9Q450.8-0.8 449.25-0.18 447.7 0.45 446.1 0.45L446.1 0.45Q443.95 0.45 442.43-0.6 440.9-1.65 440.9-4.55L440.9-4.55Q440.9-4.55 440.93-5.78 440.95-7 440.95-8.78 440.95-10.55 440.95-12.15L440.95-12.15Q440.95-14.65 440.93-16.73 440.9-18.8 440.85-20.3L440.85-20.3Q439.35-20.25 438.5-20.25 437.65-20.25 437.65-20.25L437.65-20.25 437.5-20.8 438.65-22.75Q438.65-22.75 439.18-22.68 439.7-22.6 440.75-22.55L440.75-22.55Q440.75-23.55 440.7-24.63 440.65-25.7 440.6-26.43 440.55-27.15 440.55-27.15L440.55-27.15 443.85-30.1 444.8-29.65Q444.8-29.65 444.78-28.58 444.75-27.5 444.73-25.9 444.7-24.3 444.7-22.6L444.7-22.6Q448.1-22.6 450.08-22.63 452.05-22.65 452.05-22.65L452.05-22.65 452.3-22.05 450.5-20.05Q450.5-20.05 449.15-20.15 447.8-20.25 444.7-20.3L444.7-20.3 444.7-13.6Q444.7-10.6 444.73-8.65 444.75-6.7 444.85-4.65L444.85-4.65Q444.95-3.4 445.7-2.9 446.45-2.4 447.5-2.4L447.5-2.4Q448.65-2.4 449.88-2.8 451.1-3.2 451.9-3.55ZM477.2-12.15L477.2-12.15Q477.2-9.75 476.52-7.5 475.85-5.25 474.45-3.45 473.05-1.65 470.77-0.6 468.5 0.45 465.25 0.45L465.25 0.45Q459.65 0.45 457.15-2.53 454.65-5.5 454.65-10.3L454.65-10.3Q454.65-12.7 455.32-14.95 456-17.2 457.4-19.03 458.8-20.85 461.1-21.93 463.4-23 466.6-23L466.6-23Q470.35-23 472.67-21.63 475-20.25 476.1-17.8 477.2-15.35 477.2-12.15ZM472.9-10.3L472.9-10.3Q472.9-12.85 472.32-15.2 471.75-17.55 470.27-19.05 468.8-20.55 466.05-20.55L466.05-20.55Q463.85-20.55 462.45-19.53 461.05-18.5 460.3-17 459.55-15.5 459.25-14 458.95-12.5 458.95-11.5L458.95-11.5Q458.95-9.05 459.6-6.88 460.25-4.7 461.75-3.33 463.25-1.95 465.8-1.95L465.8-1.95Q467.8-1.95 469.17-2.83 470.55-3.7 471.37-5.05 472.2-6.4 472.55-7.83 472.9-9.25 472.9-10.3ZM487.15-22.95L487.15-22.95 488.1-22.5Q488.05-21.95 488.02-20.83 488-19.7 488-18.4L488-18.4Q489.1-20.25 490.57-21.3 492.05-22.35 493.32-22.83 494.6-23.3 495.1-23.3L495.1-23.3Q495.35-23.3 495.87-22.78 496.4-22.25 496.92-21.45 497.45-20.65 497.65-19.8L497.65-19.8 496.9-18.85Q496.25-19.1 495.35-19.33 494.45-19.55 493.45-19.55L493.45-19.55Q492.15-19.55 490.9-18.93 489.65-18.3 488.82-16.82 488-15.35 488-12.7L488-12.7Q488-8.6 488.07-6.48 488.15-4.35 488.27-3.55 488.4-2.75 488.45-2.45L488.45-2.45Q488.55-2.05 489.95-1.73 491.35-1.4 492.75-1.3L492.75-1.3 492.6 0.15Q491.8 0.1 490.6 0.08 489.4 0.05 488.2 0.03 487 0 486.15 0L486.15 0Q484.9 0 483.27 0.03 481.65 0.05 480.45 0.15L480.45 0.15 480.6-1.3Q481.15-1.35 481.87-1.5 482.6-1.65 483.2-1.9 483.8-2.15 483.85-2.4L483.85-2.4Q483.85-2.4 483.95-3.15 484.05-3.9 484.15-5.85 484.25-7.8 484.25-11.45L484.25-11.45Q484.25-15.1 484.15-16.88 484.05-18.65 483.95-19.23 483.85-19.8 483.85-19.8L483.85-19.8 480.65-20.75 480.55-22.05Q481.45-22.05 482.67-22.18 483.9-22.3 485.1-22.53 486.3-22.75 487.15-22.95Z" opacity="1" transform="matrix(1,0,0,1,0,0)" fill="#e9abfe" class="wordmark-text-0" data-fill-palette-color="primary" id="text-0"></path></svg></g></svg></g><g transform="matrix(1,0,0,1,0,48.77140145301989)"><svg viewBox="0 0 395.52 24.38420137432188" height="24.38420137432188" width="395.52"><g transform="matrix(1,0,0,1,0,0)"><svg width="395.52" viewBox="2.32 -37.99 802.6999999999999 49.49" height="24.38420137432188" data-palette-color="#e9abfe"><path d="M2.32-21.09L3.32-25.29 12.57-25.29 11.57-21.09 9.62-21.09 10.42-5.86 20.58-25.29 25.27-25.29 26.27-5.86 34.42-21.09 32.08-21.09 33.08-25.29 42.33-25.29 41.33-21.09 39.14-21.09 27.37 0.39 22.58 0.39 21.68-18.99 21.58-18.99 11.47 0.39 6.67 0.39 4.86-21.09 2.32-21.09ZM52.61-21.09L53.61-25.29 63.06-25.29 58.17-4.2 62.23-4.2 61.28 0 52.27 0 57.15-21.09 52.61-21.09ZM58.27-34.2L58.27-34.2Q58.27-34.86 58.53-35.45 58.79-36.04 59.22-36.46 59.66-36.89 60.25-37.15 60.84-37.4 61.52-37.4L61.52-37.4Q62.18-37.4 62.76-37.15 63.35-36.89 63.78-36.46 64.21-36.04 64.46-35.45 64.72-34.86 64.72-34.2L64.72-34.2Q64.72-33.54 64.46-32.95 64.21-32.35 63.78-31.9 63.35-31.45 62.76-31.18 62.18-30.91 61.52-30.91L61.52-30.91Q60.84-30.91 60.25-31.18 59.66-31.45 59.22-31.9 58.79-32.35 58.53-32.95 58.27-33.54 58.27-34.2ZM78.43-21.09L79.44-25.29 83.66-25.29 85.15-31.35 90.3-33.45 88.37-25.29 93.69-25.29 92.69-21.09 87.37-21.09 84.15-7.45Q84.03-6.96 83.92-6.46 83.81-5.96 83.81-5.4L83.81-5.4Q83.81-4.3 84.4-3.85 85-3.39 86.3-3.39L86.3-3.39Q87.69-3.39 89.64-4.2L89.64-4.2 90.06-0.71Q88.76-0.1 87.57 0.26 86.37 0.61 84.9 0.61L84.9 0.61Q83.37 0.61 82.1 0.23 80.83-0.15 80-1.01 79.17-1.88 78.9-3.28 78.63-4.69 79.09-6.74L79.09-6.74 82.61-21.09 78.43-21.09ZM121.57 0L125.21-15.65Q125.89-18.53 124.76-20 123.62-21.46 120.96-21.46L120.96-21.46Q119.32-21.46 117.57-20.75 115.81-20.04 114.2-18.87L114.2-18.87 109.85 0 104.92 0 112.68-33.79 107.8-33.79 108.8-37.99 118.62-37.99 115.08-22.71Q116.86-24.1 118.89-24.93 120.91-25.76 123.06-25.76L123.06-25.76Q125.01-25.76 126.59-25.17 128.16-24.58 129.15-23.39 130.14-22.19 130.47-20.41 130.8-18.63 130.26-16.26L130.26-16.26 127.48-4.2 131.07-4.2 130.12 0 121.57 0ZM171.73-32.79L172.74-37.01 184.75-37.01 183.75-32.79 180.4-32.79 173.86-4.2 186.19-4.2Q187.24-4.2 187.81-4.76 188.38-5.32 188.58-6.15L188.58-6.15 189.73-10.96 194.63-10.96 192.1 0 164.53 0 165.48-4.2 168.76-4.2 175.35-32.79 171.73-32.79ZM208.64-21.09L209.65-25.29 219.09-25.29 214.21-4.2 218.26-4.2 217.31 0 208.3 0 213.19-21.09 208.64-21.09ZM214.31-34.2L214.31-34.2Q214.31-34.86 214.56-35.45 214.82-36.04 215.26-36.46 215.7-36.89 216.29-37.15 216.87-37.4 217.56-37.4L217.56-37.4Q218.21-37.4 218.8-37.15 219.39-36.89 219.81-36.46 220.24-36.04 220.5-35.45 220.75-34.86 220.75-34.2L220.75-34.2Q220.75-33.54 220.5-32.95 220.24-32.35 219.81-31.9 219.39-31.45 218.8-31.18 218.21-30.91 217.56-30.91L217.56-30.91Q216.87-30.91 216.29-31.18 215.7-31.45 215.26-31.9 214.82-32.35 214.56-32.95 214.31-33.54 214.31-34.2ZM233.25-21.09L234.23-25.29 243.48-25.29 242.48-21.09 240.55-21.09 242.06-5.49 252-21.09 249.95-21.09 250.95-25.29 260.18-25.29 259.18-21.09 257.25-21.09 242.75 0.39 238.45 0.39 235.62-21.09 233.25-21.09ZM294.79-11.79L275.36-11.79Q275.34-11.45 275.31-11.21 275.29-10.96 275.29-10.74L275.29-10.74Q275.29-9.2 275.79-7.89 276.29-6.57 277.18-5.6 278.07-4.64 279.3-4.09 280.54-3.54 282-3.54L282-3.54Q283.95-3.54 285.72-4.33 287.49-5.13 288.69-6.64L288.69-6.64 292.3-4Q291.47-2.91 290.33-2.03 289.18-1.15 287.79-0.52 286.4 0.1 284.82 0.43 283.25 0.76 281.61 0.76L281.61 0.76Q279.27 0.76 277.23-0.02 275.19-0.81 273.66-2.29 272.14-3.78 271.27-5.94 270.4-8.11 270.4-10.84L270.4-10.84Q270.4-13.99 271.52-16.76 272.63-19.53 274.59-21.59 276.56-23.66 279.24-24.85 281.93-26.05 285.05-26.05L285.05-26.05Q287.47-26.05 289.36-25.23 291.25-24.41 292.57-23.07 293.89-21.73 294.57-19.97 295.26-18.21 295.26-16.36L295.26-16.36Q295.26-15.11 295.12-13.95 294.99-12.79 294.79-11.79L294.79-11.79ZM284.39-21.9L284.39-21.9Q282.93-21.9 281.65-21.44 280.37-20.97 279.32-20.14 278.27-19.31 277.46-18.19 276.65-17.07 276.14-15.75L276.14-15.75 290.55-15.75Q290.57-17.26 290.14-18.42 289.72-19.58 288.9-20.35 288.08-21.12 286.93-21.51 285.79-21.9 284.39-21.9ZM334.02-32.79L335-37.01 347.01-37.01 346.01-32.79 342.57-32.79 336.02-4.2 339.42-4.2 338.46 0 326.45 0 327.4-4.2 330.92-4.2 337.51-32.79 334.02-32.79ZM358.33-21.09L359.33-25.29 368.78-25.29 368.17-22.71Q369.91-24.15 371.97-24.95 374.03-25.76 376.33-25.76L376.33-25.76Q378.91-25.76 380.79-24.71 382.67-23.66 383.45-21.53L383.45-21.53Q384.36-22.46 385.43-23.23 386.51-24 387.72-24.56 388.92-25.12 390.25-25.44 391.58-25.76 392.98-25.76L392.98-25.76Q394.93-25.76 396.5-25.17 398.08-24.58 399.08-23.39 400.08-22.19 400.4-20.41 400.72-18.63 400.18-16.26L400.18-16.26 397.4-4.2 401.03-4.2 400.08 0 391.49 0 395.12-15.65Q395.81-18.53 394.69-20 393.56-21.46 390.88-21.46L390.88-21.46Q388.97-21.46 387.26-20.64 385.55-19.82 384.02-18.38L384.02-18.38 379.79 0 374.84 0 378.47-15.65Q379.16-18.53 378.03-20 376.91-21.46 374.23-21.46L374.23-21.46Q372.32-21.46 370.61-20.64 368.9-19.82 367.37-18.36L367.37-18.36 363.14 0 358.19 0 363.07-21.09 358.33-21.09ZM433.13 0L433.52-1.71Q431.89-0.61 430.24-0.09 428.59 0.44 426.83 0.44L426.83 0.44Q424.76 0.44 422.95-0.37 421.15-1.17 419.82-2.56 418.49-3.96 417.72-5.85 416.95-7.74 416.95-9.91L416.95-9.91Q416.95-13.45 418.19-16.41 419.44-19.36 421.57-21.48 423.71-23.61 426.55-24.78 429.4-25.95 432.6-25.95L432.6-25.95Q434.43-25.95 436.04-25.4 437.65-24.85 438.68-23.97L438.68-23.97 438.99-25.29 443.9-25.29 439.02-4.2 442.95-4.2 442 0 433.13 0ZM427.98-3.76L427.98-3.76Q428.89-3.76 429.83-3.98 430.77-4.2 431.62-4.54 432.47-4.88 433.23-5.33 433.99-5.79 434.57-6.27L434.57-6.27 437.72-19.8Q437.09-20.61 435.75-21.18 434.4-21.75 432.23-21.75L432.23-21.75Q430.35-21.75 428.52-20.98 426.69-20.21 425.25-18.76 423.81-17.31 422.9-15.2 422-13.09 422-10.4L422-10.4Q422-8.84 422.44-7.6 422.88-6.37 423.66-5.52 424.44-4.66 425.55-4.21 426.66-3.76 427.98-3.76ZM474.17-1.56L474.17-1.56Q472.63-0.49 471.01-0.02 469.38 0.44 467.51 0.44L467.51 0.44Q465.43 0.44 463.62-0.37 461.82-1.17 460.49-2.56 459.16-3.96 458.39-5.85 457.62-7.74 457.62-9.91L457.62-9.91Q457.62-13.45 458.86-16.41 460.11-19.36 462.24-21.48 464.38-23.61 467.22-24.78 470.07-25.95 473.27-25.95L473.27-25.95Q475.1-25.95 476.71-25.4 478.32-24.85 479.35-23.97L479.35-23.97 479.66-25.29 484.62-25.29 478.81-0.29Q478.08 2.88 476.86 5.11 475.63 7.35 473.88 8.76 472.12 10.18 469.79 10.84 467.46 11.5 464.5 11.5L464.5 11.5Q463.16 11.5 461.72 11.28 460.28 11.06 458.9 10.61 457.52 10.16 456.3 9.47 455.08 8.79 454.15 7.86L454.15 7.86 457.3 4.3Q457.89 4.93 458.72 5.46 459.55 5.98 460.55 6.37 461.55 6.76 462.66 6.98 463.77 7.2 464.92 7.2L464.92 7.2Q466.67 7.2 468.12 6.82 469.56 6.45 470.69 5.51 471.83 4.57 472.67 2.97 473.51 1.37 474.17-1.56ZM468.65-3.76L468.65-3.76Q470.56-3.76 472.22-4.44 473.88-5.13 475.27-6.3L475.27-6.3 478.39-19.78Q477.76-20.58 476.42-21.17 475.07-21.75 472.9-21.75L472.9-21.75Q471.02-21.75 469.19-20.98 467.36-20.21 465.92-18.76 464.48-17.31 463.57-15.2 462.67-13.09 462.67-10.4L462.67-10.4Q462.67-8.84 463.11-7.6 463.55-6.37 464.33-5.52 465.11-4.66 466.22-4.21 467.33-3.76 468.65-3.76ZM521.21-11.79L501.78-11.79Q501.75-11.45 501.73-11.21 501.71-10.96 501.71-10.74L501.71-10.74Q501.71-9.2 502.21-7.89 502.71-6.57 503.6-5.6 504.49-4.64 505.72-4.09 506.95-3.54 508.42-3.54L508.42-3.54Q510.37-3.54 512.14-4.33 513.91-5.13 515.11-6.64L515.11-6.64 518.72-4Q517.89-2.91 516.74-2.03 515.6-1.15 514.21-0.52 512.81 0.1 511.24 0.43 509.66 0.76 508.03 0.76L508.03 0.76Q505.68 0.76 503.65-0.02 501.61-0.81 500.08-2.29 498.56-3.78 497.69-5.94 496.82-8.11 496.82-10.84L496.82-10.84Q496.82-13.99 497.93-16.76 499.04-19.53 501.01-21.59 502.97-23.66 505.66-24.85 508.35-26.05 511.47-26.05L511.47-26.05Q513.89-26.05 515.78-25.23 517.67-24.41 518.99-23.07 520.31-21.73 520.99-19.97 521.68-18.21 521.68-16.36L521.68-16.36Q521.68-15.11 521.54-13.95 521.41-12.79 521.21-11.79L521.21-11.79ZM510.81-21.9L510.81-21.9Q509.35-21.9 508.07-21.44 506.78-20.97 505.73-20.14 504.68-19.31 503.88-18.19 503.07-17.07 502.56-15.75L502.56-15.75 516.96-15.75Q516.99-17.26 516.56-18.42 516.13-19.58 515.32-20.35 514.5-21.12 513.35-21.51 512.2-21.9 510.81-21.9ZM560.02-32.79L561.02-37.01 575.87-37.01Q577.99-37.01 579.75-36.28 581.51-35.55 582.78-34.29 584.05-33.03 584.74-31.35 585.44-29.66 585.44-27.76L585.44-27.76Q585.44-25.24 584.49-23.1 583.53-20.95 581.69-19.38 579.85-17.82 577.13-16.93 574.4-16.04 570.89-16.04L570.89-16.04 564.86-16.04 562.15-4.2 565.83-4.2 564.88 0 552.87 0 553.82-4.2 557.04-4.2 563.64-32.79 560.02-32.79ZM574.48-32.79L568.69-32.79 565.83-20.24 571.42-20.24Q573.4-20.24 575.04-20.72 576.67-21.19 577.85-22.11 579.02-23.02 579.65-24.37 580.29-25.71 580.29-27.44L580.29-27.44Q580.29-28.47 579.94-29.43 579.6-30.4 578.9-31.14 578.19-31.88 577.09-32.34 575.99-32.79 574.48-32.79L574.48-32.79ZM616.56-25.15L614.95-18.31 609.99-18.31 610.7-21.29Q608.33-21.29 606.67-20.08 605.01-18.87 603.94-16.89L603.94-16.89 601.01-4.2 605.21-4.2 604.26 0 595.1 0 599.99-21.09 595.15-21.09 596.15-25.29 605.7-25.29 604.89-21.83Q605.58-22.61 606.36-23.28 607.14-23.95 608.01-24.44 608.87-24.93 609.81-25.21 610.75-25.49 611.7-25.49L611.7-25.49Q612.58-25.49 613.22-25.46 613.85-25.44 614.57-25.38 615.29-25.32 616.56-25.15L616.56-25.15ZM652.94-11.79L633.5-11.79Q633.48-11.45 633.45-11.21 633.43-10.96 633.43-10.74L633.43-10.74Q633.43-9.2 633.93-7.89 634.43-6.57 635.32-5.6 636.21-4.64 637.44-4.09 638.68-3.54 640.14-3.54L640.14-3.54Q642.1-3.54 643.87-4.33 645.64-5.13 646.83-6.64L646.83-6.64 650.45-4Q649.62-2.91 648.47-2.03 647.32-1.15 645.93-0.52 644.54 0.1 642.96 0.43 641.39 0.76 639.75 0.76L639.75 0.76Q637.41 0.76 635.37-0.02 633.33-0.81 631.81-2.29 630.28-3.78 629.41-5.94 628.55-8.11 628.55-10.84L628.55-10.84Q628.55-13.99 629.66-16.76 630.77-19.53 632.73-21.59 634.7-23.66 637.38-24.85 640.07-26.05 643.19-26.05L643.19-26.05Q645.61-26.05 647.5-25.23 649.4-24.41 650.71-23.07 652.03-21.73 652.72-19.97 653.4-18.21 653.4-16.36L653.4-16.36Q653.4-15.11 653.27-13.95 653.13-12.79 652.94-11.79L652.94-11.79ZM642.54-21.9L642.54-21.9Q641.07-21.9 639.79-21.44 638.51-20.97 637.46-20.14 636.41-19.31 635.6-18.19 634.8-17.07 634.28-15.75L634.28-15.75 648.69-15.75Q648.71-17.26 648.28-18.42 647.86-19.58 647.04-20.35 646.22-21.12 645.07-21.51 643.93-21.9 642.54-21.9ZM665.11-21.09L666.09-25.29 675.34-25.29 674.34-21.09 672.41-21.09 673.93-5.49 683.86-21.09 681.81-21.09 682.81-25.29 692.04-25.29 691.04-21.09 689.11-21.09 674.61 0.39 670.31 0.39 667.48-21.09 665.11-21.09ZM703.34-21.09L704.34-25.29 713.79-25.29 708.91-4.2 712.96-4.2 712.01 0 703 0 707.88-21.09 703.34-21.09ZM709.01-34.2L709.01-34.2Q709.01-34.86 709.26-35.45 709.52-36.04 709.96-36.46 710.4-36.89 710.98-37.15 711.57-37.4 712.25-37.4L712.25-37.4Q712.91-37.4 713.5-37.15 714.09-36.89 714.51-36.46 714.94-36.04 715.2-35.45 715.45-34.86 715.45-34.2L715.45-34.2Q715.45-33.54 715.2-32.95 714.94-32.35 714.51-31.9 714.09-31.45 713.5-31.18 712.91-30.91 712.25-30.91L712.25-30.91Q711.57-30.91 710.98-31.18 710.4-31.45 709.96-31.9 709.52-32.35 709.26-32.95 709.01-33.54 709.01-34.2ZM752.83-11.79L733.39-11.79Q733.37-11.45 733.34-11.21 733.32-10.96 733.32-10.74L733.32-10.74Q733.32-9.2 733.82-7.89 734.32-6.57 735.21-5.6 736.1-4.64 737.34-4.09 738.57-3.54 740.03-3.54L740.03-3.54Q741.99-3.54 743.76-4.33 745.53-5.13 746.72-6.64L746.72-6.64 750.34-4Q749.51-2.91 748.36-2.03 747.21-1.15 745.82-0.52 744.43 0.1 742.85 0.43 741.28 0.76 739.64 0.76L739.64 0.76Q737.3 0.76 735.26-0.02 733.22-0.81 731.7-2.29 730.17-3.78 729.3-5.94 728.44-8.11 728.44-10.84L728.44-10.84Q728.44-13.99 729.55-16.76 730.66-19.53 732.62-21.59 734.59-23.66 737.27-24.85 739.96-26.05 743.09-26.05L743.09-26.05Q745.5-26.05 747.39-25.23 749.29-24.41 750.6-23.07 751.92-21.73 752.61-19.97 753.29-18.21 753.29-16.36L753.29-16.36Q753.29-15.11 753.16-13.95 753.02-12.79 752.83-11.79L752.83-11.79ZM742.43-21.9L742.43-21.9Q740.96-21.9 739.68-21.44 738.4-20.97 737.35-20.14 736.3-19.31 735.49-18.19 734.69-17.07 734.17-15.75L734.17-15.75 748.58-15.75Q748.6-17.26 748.18-18.42 747.75-19.58 746.93-20.35 746.11-21.12 744.97-21.51 743.82-21.9 742.43-21.9ZM765.01-21.09L766.01-25.29 775.26-25.29 774.26-21.09 772.31-21.09 773.11-5.86 783.27-25.29 787.95-25.29 788.96-5.86 797.11-21.09 794.77-21.09 795.77-25.29 805.02-25.29 804.02-21.09 801.82-21.09 790.05 0.39 785.27 0.39 784.37-18.99 784.27-18.99 774.16 0.39 769.35 0.39 767.54-21.09 765.01-21.09Z" opacity="1" transform="matrix(1,0,0,1,0,0)" fill="#e9abfe" class="slogan-text-1" data-fill-palette-color="secondary" id="text-1"></path></svg></g></svg></g></svg></g></svg></g><g transform="matrix(1,0,0,1,107.4397246582641,0)"><svg viewBox="0 0 180.6405506834718 180.6405506834718" height="180.6405506834718" width="180.6405506834718"><g><svg></svg></g><g id="icon-0"><svg viewBox="0 0 180.6405506834718 180.6405506834718" height="180.6405506834718" width="180.6405506834718"><g><path d="M0 90.32c0-49.883 40.438-90.32 90.32-90.32 49.883 0 90.32 40.438 90.321 90.32 0 49.883-40.438 90.32-90.321 90.321-49.883 0-90.32-40.438-90.32-90.321zM90.32 177.082c47.917 0 86.762-38.845 86.762-86.762 0-47.917-38.845-86.762-86.762-86.762-47.917 0-86.762 38.845-86.762 86.762 0 47.917 38.845 86.762 86.762 86.762z" data-fill-palette-color="accent" fill="#eed5f6" stroke="transparent"></path></g><g transform="matrix(1,0,0,1,35.741554854308376,48.788332791004805)"><svg viewBox="0 0 109.15744097485504 83.06388510146218" height="83.06388510146218" width="109.15744097485504"><g><svg xmlns="http://www.w3.org/2000/svg" xmlns:xlink="http://www.w3.org/1999/xlink" version="1.1" baseProfile="tiny" x="0" y="0" viewBox="22.361 22.361 72.639 55.27499999999999" xml:space="preserve" height="83.06388510146218" width="109.15744097485504" class="icon-dxe-0" data-fill-palette-color="accent" id="dxe-0"><path d="M87.471 39.622C84.393 39.622 82.887 41.217 81.557 42.624 80.446 43.801 79.462 44.832 77.641 45.052V23.099A0.74 0.74 0 0 0 76.903 22.361H54.164A0.737 0.737 0 0 0 53.428 23.099C53.428 26.051 54.989 27.525 56.366 28.826 57.729 30.113 58.905 31.224 58.905 33.666 58.905 37.74 55.994 39.72 50.003 39.72 44.014 39.72 41.102 37.741 41.102 33.666 41.102 31.224 42.279 30.112 43.64 28.826 45.018 27.525 46.578 26.051 46.578 23.099A0.74 0.74 0 0 0 45.841 22.361H23.099A0.74 0.74 0 0 0 22.361 23.099V45.837C22.361 46.244 22.692 46.574 23.099 46.574 26.051 46.574 27.526 45.013 28.826 43.636 30.114 42.274 31.225 41.096 33.667 41.096 37.741 41.096 39.723 44.008 39.723 49.999S37.742 58.902 33.667 58.902C31.225 58.902 30.114 57.724 28.826 56.361 27.526 54.984 26.051 53.423 23.099 53.423A0.74 0.74 0 0 0 22.361 54.161V76.9C22.361 77.306 22.692 77.636 23.099 77.636H76.902C77.308 77.636 77.638 77.306 77.638 76.9V54.948C79.46 55.168 80.443 56.199 81.554 57.377 82.884 58.784 84.39 60.379 87.468 60.379 90.904 60.379 95 58.578 95 50S90.904 39.622 87.471 39.622M87.471 58.902C85.03 58.902 83.917 57.726 82.629 56.363 81.329 54.986 79.856 53.425 76.902 53.425A0.74 0.74 0 0 0 76.165 54.163V76.163H23.837V54.948C25.658 55.168 26.64 56.199 27.753 57.377 29.082 58.784 30.588 60.379 33.667 60.379 37.103 60.379 41.198 58.578 41.198 50S37.102 39.622 33.667 39.622C30.589 39.622 29.083 41.217 27.753 42.624 26.64 43.801 25.658 44.832 23.837 45.052V23.836H45.053C44.832 25.657 43.802 26.64 42.624 27.752 41.217 29.081 39.623 30.587 39.623 33.665 39.623 37.1 41.424 41.195 50 41.195 58.578 41.195 60.379 37.1 60.379 33.665 60.379 30.587 58.783 29.081 57.377 27.752 56.199 26.64 55.168 25.657 54.947 23.836H76.164V45.836C76.164 46.243 76.494 46.573 76.9 46.573 79.853 46.573 81.328 45.012 82.628 43.635 83.916 42.273 85.027 41.095 87.469 41.095 91.543 41.095 93.524 44.007 93.524 49.998 93.523 55.991 91.544 58.902 87.471 58.902" fill="#eed5f6" data-fill-palette-color="accent"></path></svg></g></svg></g></svg></g></svg></g><g></g></svg></g><defs></defs></svg><rect width="358.896205357084" height="247.2" fill="none" stroke="none" visibility="hidden"></rect></g></svg></g></svg>